<?xml version="1.0" encoding="UTF-8"?>
<!-- Created with Inkscape (http://www.inkscape.org/) -->
<svg width="256" height="256" version="1.1" viewBox="0 0 256 256" xml:space="preserve" xmlns="http://www.w3.org/2000/svg"><defs><clipPath id="clipPath16"><path d="m0 192h192v-192h-192z"/></clipPath></defs><g transform="matrix(1.3333 0 0 -1.3333 0 256)"><g clip-path="url(#clipPath16)"><path transform="matrix(.75 0 0 -.75 0 192)" d="m128 45.334s-73.382-4.53e-4 -91.682 4.9355c-10.097 2.716-18.049 10.718-20.748 20.881-4.9027 18.419-4.9023 56.85-4.9023 56.85s-3.23e-4 38.428 4.9023 56.85c2.6987 10.161 10.651 18.165 20.748 20.883 18.3 4.9347 91.682 4.9336 91.682 4.9336s73.383 1e-3 91.682-4.9336c10.099-2.7173 18.049-10.721 20.748-20.883 4.904-18.421 4.9043-56.85 4.9043-56.85s-2.9e-4 -38.431-4.9043-56.85c-2.6987-10.163-10.649-18.165-20.748-20.881-18.299-4.936-91.682-4.9355-91.682-4.9355zm-24 47.773 61.334 34.895-61.334 34.891z" fill="#fff"/></g></g></svg>
