<?xml version="1.0" standalone="no"?>
<!DOCTYPE svg PUBLIC "-//W3C//DTD SVG 20010904//EN"
 "http://www.w3.org/TR/2001/REC-SVG-20010904/DTD/svg10.dtd">
<svg version="1.0" xmlns="http://www.w3.org/2000/svg"
 width="1024.000000pt" height="1024.000000pt" viewBox="0 0 1024.000000 1024.000000"
 preserveAspectRatio="xMidYMid meet">
<metadata>
Created by potrace 1.14, written by Peter Selinger 2001-2017
</metadata>
<g transform="translate(0.000000,1024.000000) scale(0.100000,-0.100000)"
fill="#000000" stroke="none">
<path d="M5015 10110 c-60 -21 -2377 -1180 -2386 -1193 -3 -5 -9 -8 -13 -7 -4
1 -429 -208 -944 -466 -709 -354 -947 -478 -980 -508 -48 -44 -79 -98 -96
-166 -9 -33 -12 -737 -11 -2660 1 -2249 3 -2621 15 -2655 8 -22 17 -42 20 -45
3 -3 12 -18 20 -34 41 -81 9 -64 2232 -1175 1315 -656 2160 -1073 2188 -1078
117 -22 -15 -84 2305 1076 1555 778 2152 1081 2177 1105 46 47 58 63 51 70 -4
3 0 6 7 6 7 0 11 3 7 6 -3 4 0 13 8 21 39 38 38 14 39 2728 l0 2630 -28 62
c-55 120 18 79 -1588 882 -807 403 -1470 732 -1474 731 -4 -1 -10 3 -13 8 -3
5 -306 159 -673 342 l-667 333 -73 3 c-50 1 -89 -4 -123 -16z"/>
</g>
</svg>
